<?xml version="1.0" encoding="iso-8859-1"?>
<!-- Generator: Adobe Illustrator 19.0.0, SVG Export Plug-In . SVG Version: 6.00 Build 0)  -->
<svg version="1.1" id="Layer_1" xmlns="http://www.w3.org/2000/svg" xmlns:xlink="http://www.w3.org/1999/xlink" x="0px" y="0px"
	 viewBox="0 0 512 512" style="enable-background:new 0 0 512 512;" xml:space="preserve">
<g>
	<circle style="fill:#F2F2F2;" cx="256" cy="256" r="256"/>
	<path style="fill:#F2F2F2;" d="M256,256L256,256L256,256z"/>
	<path style="fill:#F2F2F2;" d="M256,256L256,256L256,256z"/>
	<path style="fill:#F2F2F2;" d="M256,256L256,256L256,256z"/>
	<path style="fill:#F2F2F2;" d="M256,256L256,256L256,256z"/>
	<path style="fill:#F2F2F2;" d="M256,256L256,256L256,256z"/>
	<path style="fill:#F2F2F2;" d="M256,256L256,256L256,256z"/>
</g>
<path style="fill:#F8B64C;" d="M481.067,256H393.6c0-25.6-6.4-48-18.133-69.333c-11.733-21.333-29.867-38.4-50.133-50.133
	L369.067,60.8C403.2,81.067,432,108.8,451.2,142.933C469.333,177.067,481.067,215.467,481.067,256z"/>
<path style="fill:#FF7058;" d="M481.067,256c0,40.533-10.667,78.933-29.867,112c-19.2,34.133-48,62.933-82.133,82.133L325.333,374.4
	c21.333-11.733,38.4-29.867,50.133-50.133C387.2,304,393.6,280.533,393.6,254.933h87.467V256z"/>
<path style="fill:#54C0EB;" d="M186.667,136.533c-21.333,11.733-38.4,29.867-50.133,50.133C124.8,206.933,118.4,230.4,118.4,256
	H30.933c0-40.533,10.667-78.933,29.867-112c19.2-34.133,48-62.933,82.133-82.133L186.667,136.533z"/>
<path style="fill:#84DBFF;" d="M186.667,375.467L142.933,451.2C108.8,432,80,403.2,60.8,369.067
	C42.667,334.933,30.933,296.533,30.933,256H118.4c0,25.6,6.4,49.067,18.133,69.333C149.333,345.6,166.4,362.667,186.667,375.467z"/>
<path style="fill:#FFD15C;" d="M368,61.867L324.267,137.6c-20.267-11.733-43.733-18.133-69.333-18.133s-48,6.4-69.333,18.133
	l-43.733-75.733c35.2-19.2,73.6-30.933,114.133-30.933S334.933,42.667,368,61.867z"/>
<circle style="fill:#F2F2F2;" cx="256" cy="256" r="137.6"/>
<path style="fill:#40596B;" d="M273.067,230.4c12.8,9.6,16,27.733,7.467,40.533c-9.6,12.8-27.733,16-40.533,7.467
	c-12.8-9.6-87.467-96-87.467-96S259.2,220.8,273.067,230.4z"/>
<circle style="fill:#FF7058;" cx="256" cy="253.867" r="17.067"/>
<path style="opacity:0.15;fill:#40596B;enable-background:new    ;" d="M256,52.267c120.533,0,218.667,94.933,224,214.4
	c0-3.2,1.067-7.467,1.067-10.667C481.067,132.267,380.8,30.933,256,30.933S30.933,132.267,30.933,256c0,3.2,0,7.467,1.067,10.667
	C37.333,147.2,135.467,52.267,256,52.267z"/>
<g>
</g>
<g>
</g>
<g>
</g>
<g>
</g>
<g>
</g>
<g>
</g>
<g>
</g>
<g>
</g>
<g>
</g>
<g>
</g>
<g>
</g>
<g>
</g>
<g>
</g>
<g>
</g>
<g>
</g>
</svg>
