<?xml version="1.0" encoding="iso-8859-1"?>
<!-- Generator: Adobe Illustrator 19.0.0, SVG Export Plug-In . SVG Version: 6.00 Build 0)  -->
<svg version="1.1" id="Capa_1" xmlns="http://www.w3.org/2000/svg" xmlns:xlink="http://www.w3.org/1999/xlink" x="0px" y="0px"
	 viewBox="0 0 490.423 490.423" style="enable-background:new 0 0 490.423 490.423;" xml:space="preserve">
<g>
	<path d="M483.248,366.926l-97.8-88.4c-8.3-8.3-21.8-7.3-29.1,1c-8.3,8.3-7.3,21.8,1,29.1l58,52h-32
		c-139.4,0-252.8-113.4-252.8-252.8v-33l52,58c8.3,8.3,20.8,8.3,29.1,1c8.3-8.3,8.3-20.8,1-29.1l-88.4-97.8
		c-7.3-8.3-22.9-8.3-30.2,0l-88.3,97.9c-8.3,8.3-7.3,21.8,1,29.1c10.9,8.8,25.1,5.3,30.2-1l52-58v33
		c0,162.3,131.1,293.4,293.4,293.4h34.2l-59.1,53.1c-8.3,8.3-8.3,20.8-1,29.1c11,10.2,24.9,5.8,29.1,1l97.8-86.3
		C492.748,390.626,492.848,376.326,483.248,366.926z"/>
</g>
<g>
</g>
<g>
</g>
<g>
</g>
<g>
</g>
<g>
</g>
<g>
</g>
<g>
</g>
<g>
</g>
<g>
</g>
<g>
</g>
<g>
</g>
<g>
</g>
<g>
</g>
<g>
</g>
<g>
</g>
</svg>
