<?xml version="1.0" encoding="iso-8859-1"?>
<!-- Generator: Adobe Illustrator 19.0.0, SVG Export Plug-In . SVG Version: 6.00 Build 0)  -->
<svg version="1.1" id="Layer_1" xmlns="http://www.w3.org/2000/svg" xmlns:xlink="http://www.w3.org/1999/xlink" x="0px" y="0px"
	 viewBox="0 0 512 512" style="enable-background:new 0 0 512 512;" xml:space="preserve">
<path style="fill:#FF5023;" d="M256,512c-68.48,0-132.797-26.6-181.096-74.904C26.6,388.797,0,324.48,0,256
	c0-68.486,26.6-132.797,74.904-181.096C123.204,26.6,187.515,0,256,0c68.48,0,132.797,26.6,181.096,74.904
	C485.4,123.203,512,187.52,512,256c0,68.486-26.6,132.797-74.904,181.096l0,0l0,0C388.797,485.4,324.486,512,256,512z"/>
<path style="fill:#CD2A00;" d="M256,0v512c68.486,0,132.797-26.6,181.096-74.904C485.4,388.797,512,324.486,512,256
	c0-68.48-26.6-132.797-74.904-181.096C388.797,26.6,324.48,0,256,0z"/>
<path style="fill:#FFFFFF;" d="M356.072,395.054H155.594c-6.455,0-12.334-3.72-15.097-9.549c-2.762-5.835-1.92-12.742,2.164-17.735
	l91.589-111.937l-91.586-111.937c-4.084-4.992-4.927-11.9-2.164-17.735c2.762-5.829,8.642-9.549,15.097-9.549h200.479
	c9.229,0,16.707,7.478,16.707,16.707v33.413c0,9.229-7.478,16.707-16.707,16.707c-9.229,0-16.707-7.478-16.707-16.707v-16.707
	H190.851l77.915,95.231c5.031,6.15,5.031,15.005,0,21.155l-77.915,95.231h148.515v-16.707c0-9.229,7.478-16.707,16.707-16.707
	s16.707,7.478,16.707,16.707v33.413C372.779,387.577,365.302,395.054,356.072,395.054z"/>
<g>
	<path style="fill:#FFE6B3;" d="M372.779,378.348v-33.413c0-9.229-7.478-16.707-16.707-16.707s-16.707,7.478-16.707,16.707v16.707
		h-83.533v33.413h100.239C365.302,395.054,372.779,387.577,372.779,378.348z"/>
	<path style="fill:#FFE6B3;" d="M268.766,245.255l-12.933-15.807v52.768l12.932-15.807
		C273.796,260.26,273.796,251.407,268.766,245.255z"/>
	<path style="fill:#FFE6B3;" d="M356.072,116.612H255.833v33.413h83.533v16.707c0,9.229,7.478,16.707,16.707,16.707
		s16.707-7.478,16.707-16.707v-33.413C372.779,124.09,365.302,116.612,356.072,116.612z"/>
</g>
<g>
</g>
<g>
</g>
<g>
</g>
<g>
</g>
<g>
</g>
<g>
</g>
<g>
</g>
<g>
</g>
<g>
</g>
<g>
</g>
<g>
</g>
<g>
</g>
<g>
</g>
<g>
</g>
<g>
</g>
</svg>
