<svg height="512pt" viewBox="0 0 512 512" width="512pt" xmlns="http://www.w3.org/2000/svg"><path d="m59.734375 392.535156v-307.203125h34.132813v307.203125zm0 0" fill="#e91e63"/><path d="m59.734375 59.734375h392.53125v34.132813h-392.53125zm0 0" fill="#cc66a1"/><path d="m59.734375 418.132812h392.53125v34.132813h-392.53125zm0 0" fill="#cc66a1"/><path d="m426.667969 392.535156v-307.203125h34.132812v307.203125zm0 0" fill="#cc66a1"/><g fill="#e91e63"><path d="m59.734375 59.734375h392.53125v34.132813h-392.53125zm0 0"/><path d="m59.734375 418.132812h392.53125v34.132813h-392.53125zm0 0"/><path d="m426.667969 392.535156v-307.203125h34.132812v307.203125zm0 0"/></g><path d="m213.332031 187.734375h85.335938c14.136719 0 25.597656 11.460937 25.597656 25.597656v85.335938c0 14.136719-11.460937 25.597656-25.597656 25.597656h-85.335938c-14.136719 0-25.597656-11.460937-25.597656-25.597656v-85.335938c0-14.136719 11.460937-25.597656 25.597656-25.597656zm0 0" fill="#283593"/><path d="m34.132812 187.734375h85.332032c14.140625 0 25.601562 11.460937 25.601562 25.597656v85.335938c0 14.136719-11.460937 25.597656-25.601562 25.597656h-85.332032c-14.136718 0-25.597656-11.460937-25.597656-25.597656v-85.335938c0-14.136719 11.460938-25.597656 25.597656-25.597656zm0 0" fill="#02a9f4"/><path d="m34.132812 366.933594h85.332032c14.140625 0 25.601562 11.460937 25.601562 25.601562v85.332032c0 14.136718-11.460937 25.597656-25.601562 25.597656h-85.332032c-14.136718 0-25.597656-11.460938-25.597656-25.597656v-85.332032c0-14.140625 11.460938-25.601562 25.597656-25.601562zm0 0" fill="#9d27b0"/><path d="m34.132812 8.535156h85.332032c14.140625 0 25.601562 11.460938 25.601562 25.597656v85.332032c0 14.140625-11.460937 25.601562-25.601562 25.601562h-85.332032c-14.136718 0-25.597656-11.460937-25.597656-25.601562v-85.332032c0-14.136718 11.460938-25.597656 25.597656-25.597656zm0 0" fill="#9d27b0"/><path d="m392.535156 187.734375h85.332032c14.136718 0 25.597656 11.460937 25.597656 25.597656v85.335938c0 14.136719-11.460938 25.597656-25.597656 25.597656h-85.332032c-14.140625 0-25.601562-11.460937-25.601562-25.597656v-85.335938c0-14.136719 11.460937-25.597656 25.601562-25.597656zm0 0" fill="#02a9f4"/><path d="m392.535156 366.933594h85.332032c14.136718 0 25.597656 11.460937 25.597656 25.601562v85.332032c0 14.136718-11.460938 25.597656-25.597656 25.597656h-85.332032c-14.140625 0-25.601562-11.460938-25.601562-25.597656v-85.332032c0-14.140625 11.460937-25.601562 25.601562-25.601562zm0 0" fill="#9d27b0"/><path d="m392.535156 8.535156h85.332032c14.136718 0 25.597656 11.460938 25.597656 25.597656v85.332032c0 14.140625-11.460938 25.601562-25.597656 25.601562h-85.332032c-14.140625 0-25.601562-11.460937-25.601562-25.601562v-85.332032c0-14.136718 11.460937-25.597656 25.601562-25.597656zm0 0" fill="#9d27b0"/><path d="m392.535156 187.734375h85.332032c14.136718 0 25.597656 11.460937 25.597656 25.597656v85.335938c0 14.136719-11.460938 25.597656-25.597656 25.597656h-85.332032c-14.140625 0-25.601562-11.460937-25.601562-25.597656v-85.335938c0-14.136719 11.460937-25.597656 25.601562-25.597656zm0 0" fill="#0377bc"/><path d="m392.535156 366.933594h85.332032c14.136718 0 25.597656 11.460937 25.597656 25.601562v85.332032c0 14.136718-11.460938 25.597656-25.597656 25.597656h-85.332032c-14.140625 0-25.601562-11.460938-25.601562-25.597656v-85.332032c0-14.140625 11.460937-25.601562 25.601562-25.601562zm0 0" fill="#6a1b9a"/><path d="m392.535156 8.535156h85.332032c14.136718 0 25.597656 11.460938 25.597656 25.597656v85.332032c0 14.140625-11.460938 25.601562-25.597656 25.601562h-85.332032c-14.140625 0-25.601562-11.460937-25.601562-25.601562v-85.332032c0-14.136718 11.460937-25.597656 25.601562-25.597656zm0 0" fill="#6a1b9a"/><path d="m392.535156 187.734375h59.730469c14.140625 0 25.601563 11.460937 25.601563 25.597656v85.335938c0 14.136719-11.460938 25.597656-25.601563 25.597656h-59.730469c-14.140625 0-25.601562-11.460937-25.601562-25.597656v-85.335938c0-14.136719 11.460937-25.597656 25.601562-25.597656zm0 0" fill="#02a9f4"/><path d="m392.535156 366.933594h59.730469c14.140625 0 25.601563 11.460937 25.601563 25.601562v85.332032c0 14.136718-11.460938 25.597656-25.601563 25.597656h-59.730469c-14.140625 0-25.601562-11.460938-25.601562-25.597656v-85.332032c0-14.140625 11.460937-25.601562 25.601562-25.601562zm0 0" fill="#9d27b0"/><path d="m392.535156 8.535156h59.730469c14.140625 0 25.601563 11.460938 25.601563 25.597656v85.332032c0 14.140625-11.460938 25.601562-25.601563 25.601562h-59.730469c-14.140625 0-25.601562-11.460937-25.601562-25.601562v-85.332032c0-14.136718 11.460937-25.597656 25.601562-25.597656zm0 0" fill="#9d27b0"/><path d="m392.535156 187.734375h59.730469c14.140625 0 25.601563 11.460937 25.601563 25.597656v85.335938c0 14.136719-11.460938 25.597656-25.601563 25.597656h-59.730469c-14.140625 0-25.601562-11.460937-25.601562-25.597656v-85.335938c0-14.136719 11.460937-25.597656 25.601562-25.597656zm0 0" fill="#02a9f4"/><path d="m392.535156 366.933594h59.730469c14.140625 0 25.601563 11.460937 25.601563 25.601562v85.332032c0 14.136718-11.460938 25.597656-25.601563 25.597656h-59.730469c-14.140625 0-25.601562-11.460938-25.601562-25.597656v-85.332032c0-14.140625 11.460937-25.601562 25.601562-25.601562zm0 0" fill="#9d27b0"/><path d="m392.535156 8.535156h59.730469c14.140625 0 25.601563 11.460938 25.601563 25.597656v85.332032c0 14.140625-11.460938 25.601562-25.601563 25.601562h-59.730469c-14.140625 0-25.601562-11.460937-25.601562-25.601562v-85.332032c0-14.136718 11.460937-25.597656 25.601562-25.597656zm0 0" fill="#9d27b0"/><path d="m213.332031 8.535156h85.335938c14.136719 0 25.597656 11.460938 25.597656 25.597656v85.332032c0 14.140625-11.460937 25.601562-25.597656 25.601562h-85.335938c-14.136719 0-25.597656-11.460937-25.597656-25.601562v-85.332032c0-14.136718 11.460937-25.597656 25.597656-25.597656zm0 0" fill="#02a9f4"/><path d="m213.332031 366.933594h85.335938c14.136719 0 25.597656 11.460937 25.597656 25.601562v85.332032c0 14.136718-11.460937 25.597656-25.597656 25.597656h-85.335938c-14.136719 0-25.597656-11.460938-25.597656-25.597656v-85.332032c0-14.140625 11.460937-25.601562 25.597656-25.601562zm0 0" fill="#02a9f4"/><path d="m477.867188 153.601562c18.851562 0 34.132812-15.285156 34.132812-34.136718v-85.332032c0-18.851562-15.28125-34.132812-34.132812-34.132812h-85.332032c-18.851562 0-34.136718 15.28125-34.136718 34.132812v17.066407h-25.597657v-17.066407c0-18.851562-15.28125-34.132812-34.132812-34.132812h-85.335938c-18.851562 0-34.132812 15.28125-34.132812 34.132812v17.066407h-25.597657v-17.066407c0-18.851562-15.285156-34.132812-34.136718-34.132812h-85.332032c-18.851562 0-34.132812 15.28125-34.132812 34.132812v85.332032c0 18.851562 15.28125 34.136718 34.132812 34.136718h17.066407v25.597657h-17.066407c-18.851562 0-34.132812 15.28125-34.132812 34.132812v85.335938c0 18.851562 15.28125 34.132812 34.132812 34.132812h17.066407v25.597657h-17.066407c-18.851562 0-34.132812 15.285156-34.132812 34.136718v85.332032c0 18.851562 15.28125 34.132812 34.132812 34.132812h85.332032c18.851562 0 34.136718-15.28125 34.136718-34.132812v-17.066407h25.597657v17.066407c0 18.851562 15.28125 34.132812 34.132812 34.132812h85.335938c18.851562 0 34.132812-15.28125 34.132812-34.132812v-17.066407h25.597657v17.066407c0 18.851562 15.285156 34.132812 34.136718 34.132812h85.332032c18.851562 0 34.132812-15.28125 34.132812-34.132812v-85.332032c0-18.851562-15.28125-34.136718-34.132812-34.136718h-17.066407v-25.597657h17.066407c18.851562 0 34.132812-15.28125 34.132812-34.132812v-85.335938c0-18.851562-15.28125-34.132812-34.132812-34.132812h-17.066407v-25.597657zm-102.402344-119.46875c0-9.425781 7.644531-17.066406 17.070312-17.066406h85.332032c9.425781 0 17.066406 7.640625 17.066406 17.066406v85.332032c0 9.425781-7.640625 17.070312-17.066406 17.070312h-85.332032c-9.425781 0-17.070312-7.644531-17.070312-17.070312zm17.070312 145.066407c-18.851562 0-34.136718 15.28125-34.136718 34.132812v85.335938c0 18.851562 15.285156 34.132812 34.136718 34.132812h17.066406v25.597657h-17.066406c-18.851562 0-34.136718 15.285156-34.136718 34.136718v17.066406h-25.597657v-17.066406c0-18.851562-15.28125-34.136718-34.132812-34.136718h-85.335938c-18.851562 0-34.132812 15.285156-34.132812 34.136718v17.066406h-25.597657v-17.066406c0-18.851562-15.285156-34.136718-34.136718-34.136718h-17.066406v-25.597657h17.066406c18.851562 0 34.136718-15.28125 34.136718-34.132812v-85.335938c0-18.851562-15.285156-34.132812-34.136718-34.132812h-17.066406v-25.597657h17.066406c18.851562 0 34.136718-15.285156 34.136718-34.136718v-17.066406h25.597657v17.066406c0 18.851562 15.28125 34.136718 34.132812 34.136718h85.335938c18.851562 0 34.132812-15.285156 34.132812-34.136718v-17.066406h25.597657v17.066406c0 18.851562 15.285156 34.136718 34.136718 34.136718h17.066406v25.597657zm-34.136718-110.933594v17.066406h-25.597657v-17.066406zm-162.132813-34.132813c0-9.425781 7.640625-17.066406 17.066406-17.066406h85.335938c9.425781 0 17.066406 7.640625 17.066406 17.066406v85.332032c0 9.425781-7.640625 17.070312-17.066406 17.070312h-85.335938c-9.425781 0-17.066406-7.644531-17.066406-17.070312zm-17.066406 34.132813v17.066406h-25.597657v-17.066406zm-162.132813 51.199219v-85.332032c0-9.425781 7.640625-17.066406 17.066406-17.066406h85.332032c9.425781 0 17.070312 7.640625 17.070312 17.066406v85.332032c0 9.425781-7.644531 17.070312-17.070312 17.070312h-85.332032c-9.425781 0-17.066406-7.644531-17.066406-17.070312zm51.199219 34.136718h17.066406v25.597657h-17.066406zm-51.199219 145.066407v-85.335938c0-9.425781 7.640625-17.066406 17.066406-17.066406h85.332032c9.425781 0 17.070312 7.640625 17.070312 17.066406v85.335938c0 9.425781-7.644531 17.066406-17.070312 17.066406h-85.332032c-9.425781 0-17.066406-7.640625-17.066406-17.066406zm51.199219 34.132812h17.066406v25.597657h-17.066406zm68.269531 145.066407c0 9.425781-7.644531 17.066406-17.070312 17.066406h-85.332032c-9.425781 0-17.066406-7.640625-17.066406-17.066406v-85.332032c0-9.425781 7.640625-17.070312 17.066406-17.070312h85.332032c9.425781 0 17.070312 7.644531 17.070312 17.070312zm17.066406-34.132813v-17.066406h25.597657v17.066406zm162.132813 34.132813c0 9.425781-7.640625 17.066406-17.066406 17.066406h-85.335938c-9.425781 0-17.066406-7.640625-17.066406-17.066406v-85.332032c0-9.425781 7.640625-17.070312 17.066406-17.070312h85.335938c9.425781 0 17.066406 7.644531 17.066406 17.070312zm17.066406-34.132813v-17.066406h25.597657v17.066406zm162.132813-51.199219v85.332032c0 9.425781-7.640625 17.066406-17.066406 17.066406h-85.332032c-9.425781 0-17.070312-7.640625-17.070312-17.066406v-85.332032c0-9.425781 7.644531-17.070312 17.070312-17.070312h85.332032c9.425781 0 17.066406 7.644531 17.066406 17.070312zm-51.199219-34.136718h-17.066406v-25.597657h17.066406zm51.199219-145.066407v85.335938c0 9.425781-7.640625 17.066406-17.066406 17.066406h-85.332032c-9.425781 0-17.070312-7.640625-17.070312-17.066406v-85.335938c0-9.425781 7.644531-17.066406 17.070312-17.066406h85.332032c9.425781 0 17.066406 7.640625 17.066406 17.066406zm-51.199219-34.132812h-17.066406v-25.597657h17.066406zm0 0"/><path d="m298.667969 179.199219h-85.335938c-18.851562 0-34.132812 15.28125-34.132812 34.132812v85.335938c0 18.851562 15.28125 34.132812 34.132812 34.132812h85.335938c18.851562 0 34.132812-15.28125 34.132812-34.132812v-85.335938c0-18.851562-15.28125-34.132812-34.132812-34.132812zm17.066406 119.46875c0 9.425781-7.640625 17.066406-17.066406 17.066406h-85.335938c-9.425781 0-17.066406-7.640625-17.066406-17.066406v-85.335938c0-9.425781 7.640625-17.066406 17.066406-17.066406h85.335938c9.425781 0 17.066406 7.640625 17.066406 17.066406zm0 0"/><path d="m76.800781 42.667969c0-4.714844-3.820312-8.535157-8.535156-8.535157h-25.597656c-4.714844 0-8.535157 3.820313-8.535157 8.535157v25.597656c0 4.714844 3.820313 8.535156 8.535157 8.535156 4.710937 0 8.53125-3.820312 8.53125-8.535156v-17.066406h17.066406c4.714844 0 8.535156-3.820313 8.535156-8.53125zm0 0"/><path d="m435.199219 469.332031c0 4.714844 3.820312 8.535157 8.535156 8.535157h25.597656c4.714844 0 8.535157-3.820313 8.535157-8.535157v-25.597656c0-4.714844-3.820313-8.535156-8.535157-8.535156-4.710937 0-8.53125 3.820312-8.53125 8.535156v17.066406h-17.066406c-4.714844 0-8.535156 3.820313-8.535156 8.53125zm0 0"/></svg>