<?xml version="1.0" encoding="iso-8859-1"?>
<!-- Generator: Adobe Illustrator 16.0.0, SVG Export Plug-In . SVG Version: 6.00 Build 0)  -->
<!DOCTYPE svg PUBLIC "-//W3C//DTD SVG 1.1//EN" "http://www.w3.org/Graphics/SVG/1.1/DTD/svg11.dtd">
<svg version="1.1" id="Capa_1" xmlns="http://www.w3.org/2000/svg" xmlns:xlink="http://www.w3.org/1999/xlink" x="0px" y="0px"
	 width="546.509px" height="546.509px" viewBox="0 0 546.509 546.509" style="enable-background:new 0 0 546.509 546.509;"
	 xml:space="preserve">
<g>
	<path d="M0,446.434h128.195V100.087H0V446.434z M64.09,381.776c-16.143,0-29.241-13.087-29.241-29.235
		c0-16.153,13.092-29.234,29.241-29.234c16.148,0,29.241,13.081,29.241,29.234C93.331,368.684,80.238,381.776,64.09,381.776z
		 M28.49,133.831h67.844v124.998H28.49V133.831z M28.49,269.317h67.844v12.939H28.49V269.317z M37.483,144.314h49.482v20.995H37.483
		V144.314z M149.554,446.434H277.75V100.087H149.554V446.434z M213.65,381.776c-16.143,0-29.241-13.087-29.241-29.235
		c0-16.153,13.092-29.234,29.241-29.234c16.148,0,29.234,13.081,29.234,29.234C242.885,368.684,229.798,381.776,213.65,381.776z
		 M178.044,133.831h67.844v124.998h-67.844V133.831z M178.044,269.317h67.844v12.939h-67.844V269.317z M187.037,144.314h49.482
		v20.995h-49.482V144.314z M412.364,88.773l-118.186,49.65l134.139,319.312l118.191-49.639L412.364,88.773z M333.509,158.494
		l62.548-26.273l48.421,115.248l-62.548,26.279L333.509,158.494z M385.984,283.427l62.548-26.273l5.013,11.922l-62.548,26.279
		L385.984,283.427z M462.375,373.306c-14.883,6.254-32.024-0.744-38.277-15.64c-6.254-14.884,0.744-32.013,15.628-38.267
		c14.883-6.26,32.024,0.733,38.277,15.628C484.251,349.911,477.259,367.052,462.375,373.306z M399.615,164.88l-45.62,19.157
		l-8.133-19.352l45.619-19.154L399.615,164.88z"/>
</g>
<g>
</g>
<g>
</g>
<g>
</g>
<g>
</g>
<g>
</g>
<g>
</g>
<g>
</g>
<g>
</g>
<g>
</g>
<g>
</g>
<g>
</g>
<g>
</g>
<g>
</g>
<g>
</g>
<g>
</g>
</svg>
