<?xml version="1.0" encoding="iso-8859-1"?>
<!-- Generator: Adobe Illustrator 19.0.0, SVG Export Plug-In . SVG Version: 6.00 Build 0)  -->
<svg version="1.1" id="Capa_1" xmlns="http://www.w3.org/2000/svg" xmlns:xlink="http://www.w3.org/1999/xlink" x="0px" y="0px"
	 viewBox="0 0 512 512" style="enable-background:new 0 0 512 512;" xml:space="preserve">
<g transform="matrix(1.25 0 0 -1.25 0 45)">
	<g>
		<g>
			<path style="fill:#3B88C3;" d="M409.6-328.089c0-25.134-20.378-45.511-45.511-45.511H45.511C20.378-373.6,0-353.222,0-328.089
				V-9.511C0,15.622,20.378,36,45.511,36h318.578C389.222,36,409.6,15.622,409.6-9.511V-328.089z"/>
			<path style="fill:#FFFFFF;" d="M178.347-68.175c0,17.636,11.287,27.511,26.465,27.511c15.167,0,26.453-9.876,26.453-27.511
				v-200.374c0-17.647-11.287-27.511-26.453-27.511c-15.178,0-26.465,9.865-26.465,27.511V-68.175z"/>
		</g>
	</g>
</g>
<g>
</g>
<g>
</g>
<g>
</g>
<g>
</g>
<g>
</g>
<g>
</g>
<g>
</g>
<g>
</g>
<g>
</g>
<g>
</g>
<g>
</g>
<g>
</g>
<g>
</g>
<g>
</g>
<g>
</g>
</svg>
